<svg width="242" height="74" viewBox="0 0 242 74" fill="none" xmlns="http://www.w3.org/2000/svg">
<path d="M91.3618 54.7448H99.4348V56.1197H92.7761V60.5395H99.3759V61.9145H92.7761V67.4734H99.3759V68.8484H91.3618V54.7448Z" fill="#FEFEFE"/>
<path d="M106.996 68.8484V54.7448H109.922C112.031 54.7448 113.563 54.9152 114.515 55.2523C115.884 55.7335 116.954 56.562 117.724 57.7468C118.493 58.9287 118.88 60.3366 118.88 61.9735C118.88 63.3878 118.575 64.6286 117.963 65.7024C117.354 66.7761 116.558 67.5717 115.586 68.0823C114.61 68.5929 113.242 68.8484 111.484 68.8484H106.996ZM108.351 67.5127H109.978C111.923 67.5127 113.268 67.3914 114.021 67.1492C115.079 66.8022 115.914 66.1835 116.519 65.2866C117.125 64.3863 117.426 63.2895 117.426 61.9931C117.426 60.6344 117.098 59.4688 116.44 58.5065C115.786 57.5405 114.869 56.8794 113.697 56.5226C112.817 56.2539 111.366 56.1197 109.346 56.1197H108.351V67.5127Z" fill="#FEFEFE"/>
<path d="M126.794 54.7448H128.208V63.2634C128.208 64.2718 128.228 64.9034 128.267 65.1524C128.336 65.7088 128.499 66.1737 128.755 66.5471C129.01 66.9201 129.403 67.2346 129.933 67.4867C130.464 67.7388 130.997 67.8661 131.538 67.8661C132.003 67.8661 132.451 67.7682 132.88 67.5683C133.305 67.3718 133.666 67.097 133.954 66.7432C134.242 66.3929 134.451 65.9673 134.586 65.4699C134.68 65.1097 134.73 64.3765 134.73 63.2634V54.7448H136.144V63.2566C136.144 64.5171 136.019 65.5353 135.774 66.3112C135.528 67.0872 135.034 67.7648 134.298 68.3378C133.557 68.9138 132.664 69.2018 131.613 69.2018C130.474 69.2018 129.498 68.9305 128.686 68.387C127.871 67.8435 127.327 67.1265 127.053 66.2292C126.879 65.6793 126.794 64.6906 126.794 63.2566V54.7448Z" fill="#FEFEFE"/>
<path d="M157.861 57.3473L156.748 58.2019C156.135 57.4033 155.399 56.7974 154.538 56.3851C153.68 55.9723 152.737 55.7663 151.706 55.7663C150.583 55.7663 149.542 56.0381 148.583 56.5782C147.623 57.1183 146.883 57.8451 146.356 58.7552C145.829 59.6653 145.564 60.6934 145.564 61.8295C145.564 63.5514 146.154 64.9888 147.332 66.1378C148.51 67.2901 149.997 67.8661 151.794 67.8661C153.768 67.8661 155.418 67.0936 156.748 65.5485L157.861 66.3929C157.157 67.2867 156.279 67.981 155.229 68.4686C154.177 68.9565 153.002 69.2018 151.706 69.2018C149.237 69.2018 147.289 68.3801 145.865 66.7368C144.67 65.352 144.071 63.6758 144.071 61.7149C144.071 59.6521 144.795 57.9139 146.242 56.506C147.692 55.0951 149.506 54.3914 151.686 54.3914C153.002 54.3914 154.191 54.6499 155.251 55.1673C156.312 55.6877 157.183 56.4145 157.861 57.3473Z" fill="#FEFEFE"/>
<path d="M171.586 54.7448L178.166 68.8484H176.65L174.447 64.2128H168.335L166.145 68.8484H164.573L171.232 54.7448H171.586ZM171.409 57.7045L168.983 62.8378H173.825L171.409 57.7045Z" fill="#FEFEFE"/>
<path d="M184.067 56.1197V54.7448H191.787V56.1197H188.644V68.8484H187.21V56.1197H184.067Z" fill="#FEFEFE"/>
<path d="M198.751 54.7448H200.166V68.8484H198.751V54.7448Z" fill="#FEFEFE"/>
<path d="M215.233 54.3914C217.368 54.3914 219.155 55.1049 220.592 56.5291C222.03 57.9532 222.75 59.708 222.75 61.7902C222.75 63.8557 222.033 65.6075 220.599 67.0445C219.162 68.4818 217.414 69.2018 215.348 69.2018C213.259 69.2018 211.494 68.4852 210.057 67.0543C208.62 65.6237 207.9 63.892 207.9 61.859C207.9 60.5036 208.227 59.2496 208.882 58.0908C209.537 56.935 210.43 56.0283 211.563 55.3733C212.693 54.7187 213.917 54.3914 215.233 54.3914ZM215.295 55.7663C214.254 55.7663 213.265 56.0381 212.329 56.5812C211.396 57.1247 210.666 57.8549 210.139 58.7749C209.615 59.6982 209.353 60.7228 209.353 61.8556C209.353 63.5284 209.933 64.9427 211.095 66.095C212.257 67.2508 213.659 67.8268 215.295 67.8268C216.392 67.8268 217.404 67.5619 218.333 67.0316C219.267 66.501 219.993 65.7742 220.514 64.8542C221.034 63.9343 221.296 62.9131 221.296 61.7868C221.296 60.6673 221.034 59.6555 220.514 58.7518C219.993 57.8485 219.257 57.1247 218.311 56.5812C217.364 56.0381 216.359 55.7663 215.295 55.7663Z" fill="#FEFEFE"/>
<path d="M230.723 68.8484V54.7448H231.027L240.407 65.5319V54.7448H241.821V68.8484H241.5L232.176 58.1561V68.8484H230.723Z" fill="#FEFEFE"/>
<path fill-rule="evenodd" clip-rule="evenodd" d="M56.1963 67.9622L56.2201 67.9471L62.1452 73.8579L68.3093 73.8106L60.7974 65.8676L61.9933 65.027L70.278 73.7955L75.7942 73.7528L65.6039 62.9116L66.777 61.9584L77.7573 73.7377L85.0106 73.6821L67.7389 56.4104C75.3747 44.2642 75.1978 28.6131 67.2079 16.6294L63.8744 19.9626L63.8763 19.9663L66.7702 17.0811L63.8763 19.9663C66.1837 24.8283 67.482 29.1128 67.9695 33.0919C68.4215 36.7788 68.1785 40.197 67.398 43.5623C67.3837 43.6247 67.3534 43.7573 67.3523 43.757L65.9966 43.2951C65.9962 43.2947 66.023 43.173 66.0359 43.1129C66.7446 39.7616 66.9751 36.8412 66.5367 33.2665C66.0824 29.5618 64.8922 25.5684 62.7919 21.0473L62.0345 21.8024L62.7912 21.0458L62.7919 21.0473L62.0345 21.8024L59.8813 23.9556C61.0862 26.7551 61.8924 29.0867 62.3569 31.3847C62.6169 32.6667 62.7689 33.9105 62.8218 35.23C62.8562 36.0921 62.8339 36.9723 62.7874 37.9308C62.7711 38.2751 62.6706 40.4847 62.341 42.043L61.0072 41.5758C61.3266 39.8599 61.4139 37.7653 61.434 37.4758C61.4929 36.628 61.4993 35.8702 61.4596 35.1446C61.3965 33.9876 61.2159 32.909 60.9464 31.667C60.5344 29.6264 59.8273 27.5333 58.7837 25.0536L55.3598 28.4775L55.3818 28.527C57.6431 33.5598 57.7697 39.3187 55.7612 44.4324C47.8401 40.2065 41.19 41.1789 35.9176 47.7844L44.2291 55.986L44.2227 55.9887L56.1963 67.9622ZM44.2979 45.5333C45.0553 45.5333 45.6695 46.1596 45.6695 46.9321C45.6695 47.7051 45.0553 48.3313 44.2979 48.3313C43.5401 48.3313 42.926 47.7051 42.926 46.9321C42.926 46.1596 43.5401 45.5333 44.2979 45.5333Z" fill="#FE8D00"/>
<path fill-rule="evenodd" clip-rule="evenodd" d="M32.1955 25.853C32.2363 25.8654 32.2775 25.8791 32.3191 25.8934L18.5377 39.7424C19.8133 46.4412 23.4545 50.3375 27.9816 53.1831L28.0973 53.0675C28.109 53.1011 28.1204 53.1347 28.1325 53.1684L43.5745 37.5147L54.4266 26.6629L54.4278 26.6648L66.071 15.0216C65.0275 13.6251 63.8728 12.2848 62.6036 11.0161C48.2921 -3.29588 25.0881 -3.29588 10.7765 11.0161C-3.53544 25.3276 -3.53544 48.5313 10.7765 62.8432C22.6015 74.6682 40.4968 76.722 54.4316 69.0057L42.1163 56.6909C35.2497 58.5697 27.5961 56.8126 22.2016 51.4181C14.1996 43.4161 14.1996 30.4428 22.2016 22.4412C27.324 17.3184 34.4836 15.4755 41.0724 16.9114L35.7792 22.2046L35.7675 22.1933L34.0799 23.9042L33.4752 24.5086L33.4793 24.5128L32.1955 25.853Z" fill="#FEFEFE"/>
<path d="M114.26 39.7246L118.794 45.5595H112.888L110.635 42.6598C108.754 43.6603 106.657 44.1576 104.345 44.1576C100.475 44.1576 97.2642 42.8216 94.7062 40.1498C92.1486 37.4781 90.8666 34.2912 90.8666 30.5948C90.8666 28.1328 91.4657 25.8625 92.6577 23.8015C93.8498 21.7348 95.4912 20.0994 97.576 18.8836C99.6665 17.6673 101.913 17.0562 104.309 17.0562C107.969 17.0562 111.115 18.3741 113.738 21.016C116.368 23.6579 117.68 26.8807 117.68 30.6787C117.68 34.1714 116.542 37.1844 114.26 39.7246ZM111.18 35.7588C112.205 34.2194 112.72 32.5118 112.72 30.6428C112.72 28.2046 111.899 26.1319 110.252 24.4308C108.61 22.7232 106.622 21.8728 104.291 21.8728C101.889 21.8728 99.8762 22.7054 98.2589 24.3646C96.6353 26.0242 95.8265 28.1328 95.8265 30.6969C95.8265 33.5481 96.8451 35.8068 98.8879 37.466C100.487 38.7661 102.296 39.4132 104.327 39.4132C105.495 39.4132 106.592 39.1974 107.616 38.7722L102.949 32.7635H108.856L111.18 35.7588Z" fill="#FEFEFE"/>
<path d="M135.699 17.7031H140.647L150.579 43.5105H145.469L143.456 38.1908H132.877L130.817 43.5105H125.707L135.699 17.7031ZM138.179 24.5622L134.68 33.4464H141.659L138.179 24.5622Z" fill="#FEFEFE"/>
<path d="M158.492 17.7031H174.127L164.914 38.7661H173.516V43.5105H157.737L166.903 22.5557H158.492V17.7031Z" fill="#FEFEFE"/>
<path d="M191.182 17.7031H196.13L206.062 43.5105H200.952L198.939 38.1908H188.36L186.299 43.5105H181.189L191.182 17.7031ZM193.662 24.5622L190.163 33.4464H197.142L193.662 24.5622Z" fill="#FEFEFE"/>
<path d="M237.44 39.7246L241.974 45.5595H236.068L233.816 42.6598C231.934 43.6603 229.838 44.1576 227.525 44.1576C223.655 44.1576 220.444 42.8216 217.886 40.1498C215.329 37.4781 214.047 34.2912 214.047 30.5948C214.047 28.1328 214.646 25.8625 215.838 23.8015C217.03 21.7348 218.671 20.0994 220.756 18.8836C222.847 17.6673 225.093 17.0562 227.489 17.0562C231.149 17.0562 234.295 18.3741 236.918 21.016C239.548 23.6579 240.86 26.8807 240.86 30.6787C240.86 34.1714 239.722 37.1844 237.44 39.7246ZM234.361 35.7588C235.385 34.2194 235.9 32.5118 235.9 30.6428C235.9 28.2046 235.079 26.1319 233.432 24.4308C231.79 22.7232 229.802 21.8728 227.471 21.8728C225.069 21.8728 223.056 22.7054 221.439 24.3646C219.815 26.0242 219.007 28.1328 219.007 30.6969C219.007 33.5481 220.025 35.8068 222.068 37.466C223.667 38.7661 225.476 39.4132 227.507 39.4132C228.675 39.4132 229.772 39.1974 230.796 38.7722L226.129 32.7635H232.036L234.361 35.7588Z" fill="#FEFEFE"/>
</svg>
